<svg xmlns="http://www.w3.org/2000/svg" viewBox="0 0 132 92.96"><defs><style>.cls-1{fill:#fff;}</style></defs><title>logoJUL</title><g id="Calque_2" data-name="Calque 2"><g id="Layer_1" data-name="Layer 1"><path class="cls-1" d="M38.43,39.19l.12,5.55a13.73,13.73,0,0,1-1.16,5.92A11.55,11.55,0,0,1,33.64,55a30.62,30.62,0,0,1-7.11,3.6L24,54.2v-.73a16.82,16.82,0,0,0,5.34-3.87,7.66,7.66,0,0,0,1.55-5V40l-.37-21-6.47.18-.61-.61.43-5.67H38.86Z"/><path class="cls-1" d="M78.51,32.79,78.44,38q.06,7-4.09,10.86T62.46,52.67Q55,52.67,51.12,49T47.39,38.28l.06-5.67-.18-19.76h8.3l-.43,24.34q-.06,4.45,1.89,6.59T63,45.9q7.93,0,7.87-8.3l-.43-24.77h8.42Z"/><path class="cls-1" d="M108.76,46l-.55,6.16H87l.43-11.71L87,12.84H95.4l-.49,26.84.18,5.61h13.18Z"/><path class="cls-1" d="M127.5,0H81.33V3H127.5A1.5,1.5,0,0,1,129,4.5v56a1.5,1.5,0,0,1-1.5,1.5H4.5A1.5,1.5,0,0,1,3,60.5V4.5A1.5,1.5,0,0,1,4.5,3H42.67V0H4.5A4.5,4.5,0,0,0,0,4.5v56A4.5,4.5,0,0,0,4.5,65h123a4.5,4.5,0,0,0,4.5-4.5V4.5A4.5,4.5,0,0,0,127.5,0Z"/><rect class="cls-1" x="51.33" width="21.33" height="3"/><path class="cls-1" d="M13.83,79.27a4,4,0,0,1,3.63-2.09,3.36,3.36,0,0,1,2.69,1.09,5.07,5.07,0,0,1,.94,3.37v6.84H19.86V81.62A3.81,3.81,0,0,0,19.14,79a2.52,2.52,0,0,0-2-.78,3.43,3.43,0,0,0-2.13.63,3.63,3.63,0,0,0-1.23,1.69v7.92H12.6v-16h1.23Z"/><path class="cls-1" d="M28.5,88.69A4.44,4.44,0,0,1,25,87.17a5.69,5.69,0,0,1-1.34-3.91v-.56a5.8,5.8,0,0,1,1.36-4,4.29,4.29,0,0,1,3.37-1.56,3.87,3.87,0,0,1,3.12,1.3A5.21,5.21,0,0,1,32.61,82v1H24.89v.34a5,5,0,0,0,1,3.15,3.15,3.15,0,0,0,2.65,1.25,5.09,5.09,0,0,0,1.87-.33,4.07,4.07,0,0,0,1.42-.9l.52.84a4.55,4.55,0,0,1-1.53,1A5.77,5.77,0,0,1,28.5,88.69Zm-.11-10.47a3,3,0,0,0-2.33,1A4.38,4.38,0,0,0,25,81.81l0,.06h6.36v-.26a3.75,3.75,0,0,0-.77-2.43A2.69,2.69,0,0,0,28.39,78.22Z"/><path class="cls-1" d="M42.12,88.48q-.11-.58-.17-1a6.47,6.47,0,0,1-.06-.86,4.51,4.51,0,0,1-1.61,1.49,4.73,4.73,0,0,1-2.38.59,3.49,3.49,0,0,1-2.53-.87,3.12,3.12,0,0,1-.9-2.35,2.83,2.83,0,0,1,1.3-2.41,5.72,5.72,0,0,1,3.38-.92h2.73V80.77a2.38,2.38,0,0,0-.75-1.87A3.08,3.08,0,0,0,39,78.22a3.17,3.17,0,0,0-2,.62,1.9,1.9,0,0,0-.77,1.55H35.06l0-.06a2.63,2.63,0,0,1,1.07-2.2,4.46,4.46,0,0,1,3-.95,4.4,4.4,0,0,1,2.93.93,3.31,3.31,0,0,1,1.11,2.68v5.46a9.51,9.51,0,0,0,.07,1.14,7.18,7.18,0,0,0,.22,1.1ZM38,87.61a4.41,4.41,0,0,0,2.45-.67,3.36,3.36,0,0,0,1.4-1.73V83.08H39.15a4.07,4.07,0,0,0-2.47.71,2.08,2.08,0,0,0-1,1.72A2,2,0,0,0,36.33,87,2.42,2.42,0,0,0,38,87.61Z"/><path class="cls-1" d="M48.3,74.54v2.84h2.44v1H48.3v7.23a2.36,2.36,0,0,0,.4,1.54,1.32,1.32,0,0,0,1.05.46l.44,0,.5-.09.18.91a2.58,2.58,0,0,1-.61.2,3.53,3.53,0,0,1-.72.08A2.3,2.3,0,0,1,47.71,88a3.48,3.48,0,0,1-.65-2.34V78.39H45.14v-1h1.92V74.54Z"/><path class="cls-1" d="M57.35,88.69a4.44,4.44,0,0,1-3.5-1.52,5.69,5.69,0,0,1-1.34-3.91v-.56a5.8,5.8,0,0,1,1.36-4,4.29,4.29,0,0,1,3.37-1.56,3.87,3.87,0,0,1,3.12,1.3A5.21,5.21,0,0,1,61.47,82v1H53.74v.34a5,5,0,0,0,1,3.15,3.15,3.15,0,0,0,2.65,1.25,5.09,5.09,0,0,0,1.87-.33,4.07,4.07,0,0,0,1.42-.9l.52.84a4.55,4.55,0,0,1-1.53,1A5.77,5.77,0,0,1,57.35,88.69Zm-.11-10.47a3,3,0,0,0-2.33,1,4.38,4.38,0,0,0-1.07,2.57l0,.06h6.36v-.26a3.75,3.75,0,0,0-.77-2.43A2.69,2.69,0,0,0,57.24,78.22Z"/><path class="cls-1" d="M63.47,83a7.25,7.25,0,0,1,1.12-4.25,3.62,3.62,0,0,1,3.13-1.59A3.85,3.85,0,0,1,71.13,79V72.48h1.23v16h-1l-.17-1.61a3.88,3.88,0,0,1-1.44,1.35,4.25,4.25,0,0,1-2.05.47,3.69,3.69,0,0,1-3.11-1.48,6.42,6.42,0,0,1-1.12-4Zm1.23.21a5.62,5.62,0,0,0,.81,3.2,2.73,2.73,0,0,0,2.42,1.19,3.49,3.49,0,0,0,2-.53,3.53,3.53,0,0,0,1.23-1.46V80.38a3.93,3.93,0,0,0-1.19-1.54,3.18,3.18,0,0,0-2-.59,2.67,2.67,0,0,0-2.44,1.33A6.52,6.52,0,0,0,64.7,83Z"/><path class="cls-1" d="M86.9,77.38,87,79.21a3.91,3.91,0,0,1,1.42-1.5,4,4,0,0,1,2.11-.53,3.55,3.55,0,0,1,2.12.61,3.36,3.36,0,0,1,1.22,1.86,4.22,4.22,0,0,1,1.43-1.81,3.78,3.78,0,0,1,2.24-.66,3.35,3.35,0,0,1,2.74,1.18,5.69,5.69,0,0,1,1,3.65v6.47H100V82a4.47,4.47,0,0,0-.73-2.9,2.51,2.51,0,0,0-2-.85,2.77,2.77,0,0,0-2.17.86,4.14,4.14,0,0,0-1,2.21c0,.08,0,.15,0,.23s0,.17,0,.29v6.66H92.91V82a4.46,4.46,0,0,0-.73-2.88,2.5,2.5,0,0,0-2-.87,3.06,3.06,0,0,0-2.06.65A3.45,3.45,0,0,0,87,80.65v7.82H85.81V77.38Z"/><path class="cls-1" d="M111.72,86.67a3.8,3.8,0,0,1-1.43,1.5,4.15,4.15,0,0,1-2.13.52,3.39,3.39,0,0,1-2.75-1.19,5.68,5.68,0,0,1-1-3.69V77.38h1.23v6.45a4.77,4.77,0,0,0,.69,2.91,2.35,2.35,0,0,0,2,.88,3.59,3.59,0,0,0,2.21-.62,3.29,3.29,0,0,0,1.16-1.7V77.38h1.23V88.48h-1.09Z"/><path class="cls-1" d="M115.71,83a7.25,7.25,0,0,1,1.12-4.25A3.62,3.62,0,0,1,120,77.18a4,4,0,0,1,2.05.51,4,4,0,0,1,1.44,1.44l.17-1.74h1V88.54a4.38,4.38,0,0,1-1.17,3.27A4.53,4.53,0,0,1,120.14,93a8.16,8.16,0,0,1-1.71-.19,6.68,6.68,0,0,1-1.58-.53l.24-1a6.38,6.38,0,0,0,1.42.5,7.38,7.38,0,0,0,1.61.17,3.26,3.26,0,0,0,2.45-.84,3.44,3.44,0,0,0,.81-2.48V87a3.84,3.84,0,0,1-1.43,1.28,4.33,4.33,0,0,1-2,.45,3.68,3.68,0,0,1-3.11-1.49,6.43,6.43,0,0,1-1.12-4Zm1.23.21a5.6,5.6,0,0,0,.81,3.2,2.74,2.74,0,0,0,2.43,1.19,3.47,3.47,0,0,0,2-.53,3.53,3.53,0,0,0,1.24-1.45V80.36a3.88,3.88,0,0,0-1.2-1.52,3.18,3.18,0,0,0-2-.59,2.68,2.68,0,0,0-2.44,1.33,6.48,6.48,0,0,0-.82,3.45Z"/></g></g></svg>