<svg xmlns="http://www.w3.org/2000/svg" viewBox="0 0 804.41 329.33"><defs><style>.cls-1{fill:#1d1d1b;}.cls-2{fill:#ef5350;}</style></defs><title>logo-spitch</title><g id="Calque_2" data-name="Calque 2"><g id="Calque_1-2" data-name="Calque 1"><path class="cls-1" d="M367.29,206.63a65.09,65.09,0,0,1-39.93-14.06l11.28-17.36a62.64,62.64,0,0,0,15.19,8.33A41,41,0,0,0,368,186.32c3.82,0,6.62-.63,8.42-1.91a5.9,5.9,0,0,0,2.69-5V179a5,5,0,0,0-1.56-3.65,13.28,13.28,0,0,0-4.25-2.69,64.75,64.75,0,0,0-6.17-2.17q-3.47-1-7.29-2.25a100.22,100.22,0,0,1-9.81-3.39,34.82,34.82,0,0,1-8.94-5.21,25.54,25.54,0,0,1-6.51-7.89,24,24,0,0,1-2.51-11.46V140a27.33,27.33,0,0,1,10-21.87,30.7,30.7,0,0,1,10.85-5.73,45,45,0,0,1,13.19-1.91,59.73,59.73,0,0,1,18,2.86,66.76,66.76,0,0,1,16.75,7.9l-10.07,18.23a83.83,83.83,0,0,0-13.54-6.34,35.43,35.43,0,0,0-11.63-2.34q-4.86,0-7.29,1.82a5.54,5.54,0,0,0-2.43,4.6v.35a4.55,4.55,0,0,0,1.56,3.39,17.13,17.13,0,0,0,4.17,2.77,44.81,44.81,0,0,0,6,2.43q3.38,1.14,7.2,2.52,4.86,1.56,9.9,3.73a41,41,0,0,1,9,5.3,26.3,26.3,0,0,1,6.6,7.64,21.49,21.49,0,0,1,2.6,10.93v.35a30.88,30.88,0,0,1-2.69,13.45,24.61,24.61,0,0,1-7.55,9.29,34,34,0,0,1-11.28,5.47A51.23,51.23,0,0,1,367.29,206.63Z"/><path class="cls-1" d="M413.12,111.85H439.5v13.36a42,42,0,0,1,11.72-10.85q6.86-4.24,17.27-4.25a41.22,41.22,0,0,1,15.8,3.13,39.11,39.11,0,0,1,13.54,9.28,46.39,46.39,0,0,1,9.47,15.11,55.59,55.59,0,0,1,3.55,20.57v.35a55.59,55.59,0,0,1-3.55,20.57,47.18,47.18,0,0,1-9.38,15.1,38.34,38.34,0,0,1-13.45,9.29,41.89,41.89,0,0,1-16,3.12q-10.59,0-17.44-4.16a46.66,46.66,0,0,1-11.55-9.72v39.92H413.12Zm48.6,72.39a21.32,21.32,0,0,0,8.77-1.82,22.13,22.13,0,0,0,7.21-5.21,25.27,25.27,0,0,0,4.94-8.07,29,29,0,0,0,1.83-10.59v-.35a29.09,29.09,0,0,0-1.83-10.5,24.85,24.85,0,0,0-4.94-8.16,21.85,21.85,0,0,0-7.21-5.21,22,22,0,0,0-17.53,0,20.82,20.82,0,0,0-7.12,5.21A25.56,25.56,0,0,0,441,147.7a29.09,29.09,0,0,0-1.82,10.5v.35a29.09,29.09,0,0,0,1.82,10.5,25.78,25.78,0,0,0,4.86,8.16,21.08,21.08,0,0,0,7.12,5.21A21.31,21.31,0,0,0,461.72,184.24Z"/><path class="cls-1" d="M522.13,78.17h27.78v23.44H522.13Zm.7,33.68h26.39V204.9H522.83Z"/><path class="cls-1" d="M596.78,206.46a43.22,43.22,0,0,1-11-1.3,19.65,19.65,0,0,1-8.51-4.6,21.93,21.93,0,0,1-5.55-8.68,38.52,38.52,0,0,1-2-13.37V134.42H558.59V111.85H569.7V88.06h26.39v23.79H618v22.57H596.09v39.89q0,9.06,8.5,9.06a25.86,25.86,0,0,0,13-3.47v21.18a40.75,40.75,0,0,1-9.2,3.9A41.22,41.22,0,0,1,596.78,206.46Z"/><path class="cls-1" d="M672.64,207a48.67,48.67,0,0,1-19.35-3.82,46.78,46.78,0,0,1-25.44-25.6,48.17,48.17,0,0,1-3.64-18.67v-.34a48.95,48.95,0,0,1,13.71-34.2,46.64,46.64,0,0,1,15.45-10.42A50,50,0,0,1,673,110.11q13.18,0,21.87,4.17a49.15,49.15,0,0,1,15.28,11.46L694,143.1a43.28,43.28,0,0,0-9.29-7.47,23.37,23.37,0,0,0-11.89-2.78,20.65,20.65,0,0,0-9,2,22.07,22.07,0,0,0-7.2,5.47,24.81,24.81,0,0,0-4.69,8.07,28.86,28.86,0,0,0-1.65,9.81v.35a30.17,30.17,0,0,0,1.65,10.07,23.92,23.92,0,0,0,4.77,8.15,22.61,22.61,0,0,0,7.47,5.47,23,23,0,0,0,9.72,2,23.82,23.82,0,0,0,11.54-2.69,49,49,0,0,0,9.81-7.21L710.66,190a65.12,65.12,0,0,1-7.12,6.77,44.3,44.3,0,0,1-8.33,5.38,45.56,45.56,0,0,1-10.07,3.56A54.8,54.8,0,0,1,672.64,207Z"/><path class="cls-1" d="M719.17,78.17h26.39v47a50.29,50.29,0,0,1,10.84-10.49q6.35-4.55,16.41-4.55,15.11,0,23.35,9.2t8.25,25.35V204.9H778V153.12q0-9.35-4.17-14.11t-11.8-4.77q-7.65,0-12.07,4.77t-4.42,14.11V204.9H719.17Z"/><path class="cls-2" d="M128.7,0,1.12,74.18,0,224.24l77,44.4.57,60.69L258,223.68V75.87Zm50,175.12a41,41,0,0,1-3.58,17.54,36.07,36.07,0,0,1-10,12.9,45.13,45.13,0,0,1-15.3,8,66.46,66.46,0,0,1-19.69,2.74,88.05,88.05,0,0,1-29.77-5.21,78.71,78.71,0,0,1-26.55-16l17.25-20.67a86.92,86.92,0,0,0,18.68,11.76,50,50,0,0,0,21,4.36q9.11,0,14.13-3.32a10.43,10.43,0,0,0,5-9.19v-.38a11.48,11.48,0,0,0-1-5,10.56,10.56,0,0,0-4-4.08,42.3,42.3,0,0,0-8.16-3.79,141,141,0,0,0-13.56-4q-10-2.66-18.2-5.6a49.6,49.6,0,0,1-13.85-7.39,30.21,30.21,0,0,1-8.81-11.1q-3.14-6.63-3.13-16.5v-.37a38.53,38.53,0,0,1,3.39-16.41,37.41,37.41,0,0,1,9.51-12.61,42.77,42.77,0,0,1,14.63-8.16,58.9,58.9,0,0,1,18.74-2.84,79.41,79.41,0,0,1,26.84,4.36,77.85,77.85,0,0,1,22.47,12.52l-15.17,22A96.26,96.26,0,0,0,142.11,109,44.58,44.58,0,0,0,125,105.52q-8.54,0-12.8,3.32a10.06,10.06,0,0,0-4.27,8.25v.38a11.85,11.85,0,0,0,1.24,5.59,11.07,11.07,0,0,0,4.45,4.27,41.25,41.25,0,0,0,8.82,3.6q5.59,1.71,14.13,4a135.63,135.63,0,0,1,17.92,6,50,50,0,0,1,13.28,8,30.29,30.29,0,0,1,8.15,10.9,37.14,37.14,0,0,1,2.75,15Z"/></g></g></svg>